<?xml version="1.0" encoding="utf-8"?>
<!-- Generator: Adobe Illustrator 24.1.1, SVG Export Plug-In . SVG Version: 6.00 Build 0)  -->
<svg version="1.1" id="Layer_1" xmlns="http://www.w3.org/2000/svg" xmlns:xlink="http://www.w3.org/1999/xlink" x="0px" y="0px"
	 viewBox="0 0 215.2 50" style="enable-background:new 0 0 215.2 50;" xml:space="preserve">
<style type="text/css">
	.st0{fill:#510ACA;}
	.st1{fill:#0094FC;}
</style>
<g>
	<path class="st0" d="M57.2,11.1c0-1.2,0-2.3,0-3.5c4.6,0,9.3,0,13.9,0c0,1.2,0,2.3,0,3.5C66.5,11.1,61.9,11.1,57.2,11.1z"/>
	<path class="st0" d="M71.1,26.6c0,1.2,0,2.3,0,3.5c-4.6,0-9.3,0-13.9,0c0-1.2,0-2.3,0-3.5C61.9,26.6,66.5,26.6,71.1,26.6z"/>
	<path class="st0" d="M37.6,7.6c0,1.2,0,2.4,0,3.5c-4.6,0-9.2,0-13.9,0c0-1.2,0-2.4,0-3.5C28.4,7.6,33,7.6,37.6,7.6z"/>
	<path class="st0" d="M23.8,26.6c4.6,0,9.2,0,13.9,0c0,1.2,0,2.3,0,3.5c-0.1,0-0.2,0-0.3,0c-4.4,0-8.8,0-13.2,0
		c-0.3,0-0.4-0.1-0.4-0.4c0-0.9,0-1.9,0-2.8C23.7,26.8,23.8,26.7,23.8,26.6z"/>
	<g>
		<g>
			<path class="st1" d="M0,43.5C0,29,0,14.5,0,0c71.7,0,143.4,0,215.2,0c0,14.5,0,29,0,43.5c-20.1,0-40.2,0-60.3,0
				c0-0.7,0-1.4,0-2.2c19.4,0,38.8,0,58.2,0c0-13.1,0-26.1,0-39.1c-70.3,0-140.5,0-210.8,0c0,13,0,26,0,39.1c21.1,0,42.1,0,63.2,0
				c0,0.7,0,1.4,0,2.2C43.6,43.5,21.8,43.5,0,43.5z"/>
			<path class="st1" d="M86.6,39.7c0,3.1,0,6.1,0,9.2c-0.8,0-1.5,0-2.3,0c0-4.4,0-8.8,0-13.2c0.7,0,1.4,0,2,0c0.1,0,0.2,0.1,0.3,0.2
				c1.1,1.4,2.2,2.9,3.4,4.4c1.1,1.5,2.3,2.9,3.4,4.4c0-3,0-5.9,0-8.9c0.8,0,1.6,0,2.3,0c0,4.4,0,8.8,0,13.2c-0.6,0-1.2,0-1.8,0
				c-0.1,0-0.2-0.1-0.2-0.2c-1.7-2.2-3.4-4.3-5-6.5C88,41.3,87.3,40.5,86.6,39.7C86.6,39.6,86.6,39.6,86.6,39.7z"/>
			<path class="st1" d="M72.8,48.9c-1.9-0.5-3.4-1.6-4.3-3.3c-1.4-2.7-1-5.8,1.1-8c1.1-1.1,2.4-1.8,4-2c2-0.3,3.8,0.1,5.3,1.3
				c1.3,1,2.1,2.4,2.4,4.1c0.4,2,0,3.8-1.2,5.5c-0.9,1.2-2.1,1.9-3.4,2.4c-0.1,0-0.1,0-0.2,0c0-0.7,0-1.5,0-2.2
				c0-0.1,0.1-0.1,0.1-0.2c1.8-1,2.5-2.6,2.4-4.6c-0.1-1.8-1.4-3.5-3.1-4c-2.6-0.8-5.2,0.8-5.6,3.6c-0.2,1.4,0,2.7,0.9,3.9
				c0.4,0.5,0.8,0.9,1.3,1.1c0.2,0.1,0.3,0.2,0.3,0.5C72.8,47.5,72.8,48.2,72.8,48.9z"/>
			<path class="st1" d="M131.1,48.9c-0.8,0-1.6,0-2.3,0c-0.1,0-0.2-0.1-0.2-0.2c-0.4-0.9-0.8-1.8-1.2-2.7c-0.1-0.2-0.2-0.3-0.4-0.3
				c-1.9,0-3.7,0-5.6,0c-0.2,0-0.3,0.1-0.4,0.3c-0.4,0.9-0.8,1.8-1.1,2.7c-0.1,0.2-0.2,0.3-0.4,0.3c-0.7,0-1.4,0-2.1,0
				c0.2-0.6,0.5-1.1,0.7-1.6c1.7-3.8,3.3-7.6,5-11.4c0.1-0.2,0.2-0.3,0.4-0.3c0.5,0,1.1,0,1.6,0c0.2,0,0.3,0.1,0.4,0.3
				c1.6,3.6,3.1,7.1,4.7,10.7c0.3,0.7,0.6,1.4,0.9,2.1C131.1,48.7,131.1,48.8,131.1,48.9z M122,43.6c1.5,0,3,0,4.4,0
				c-0.7-1.7-1.5-3.4-2.2-5.1C123.5,40.2,122.8,41.9,122,43.6z"/>
			<path class="st1" d="M114.6,45.2c0.5,0.5,1,1,1.5,1.5c-1.2,1.2-2.5,2.1-4.2,2.3c-1.4,0.2-2.8,0.1-4.1-0.6c-2.1-1-3.3-2.7-3.7-5
				c-0.3-2.1,0.1-4,1.5-5.6c1.1-1.3,2.5-2.1,4.1-2.3c1.6-0.2,3.2-0.1,4.7,0.8c0.6,0.3,1,0.7,1.6,1.1c-0.5,0.6-1,1.2-1.5,1.7
				c-0.6-0.4-1.1-0.8-1.7-1.1c-2.6-1.3-5.6,0.1-6.2,3c-0.3,1.6-0.1,3.1,1,4.3c0.7,0.8,1.6,1.3,2.7,1.4c1.4,0.2,2.6-0.3,3.7-1.2
				C114.3,45.5,114.5,45.4,114.6,45.2C114.6,45.2,114.6,45.2,114.6,45.2z"/>
			<path class="st1" d="M144.9,35.7c0.8,0,1.5,0,2.3,0c0,3.7,0,7.3,0,11c2.3,0,4.6,0,6.9,0c0,0.7,0,1.4,0,2.1c-3.1,0-6.1,0-9.2,0
				C144.9,44.4,144.9,40.1,144.9,35.7z"/>
			<path class="st1" d="M133.4,48.8c0-4.4,0-8.8,0-13.1c0.8,0,1.5,0,2.3,0c0,3.7,0,7.3,0,11c2.3,0,4.6,0,6.9,0c0,0.7,0,1.4,0,2.1
				C139.5,48.8,136.4,48.8,133.4,48.8z"/>
		</g>
	</g>
	<g>
		<g>
			<path class="st0" d="M188,32.8c-0.7-0.3-1.2-0.6-1.8-0.9c-1.5-0.7-3-1.5-4.5-2.2c-0.1-0.1-0.3-0.1-0.4,0
				c-1.5,0.6-3.1,0.9-4.8,0.8c-2.7-0.1-5.2-1.1-7.2-2.9c-1.9-1.7-3.1-3.7-3.7-6.1c-0.3-1.2-0.3-2.5-0.2-3.8c0.2-2.3,1.1-4.4,2.6-6.2
				c1.7-2.1,3.9-3.4,6.6-4c1.1-0.2,2.1-0.3,3.2-0.2c2.3,0.2,4.5,1,6.3,2.4c2.2,1.7,3.7,4,4.3,6.8c0.7,3.5,0,6.7-2.2,9.6
				c-0.3,0.3-0.6,0.7-0.9,1c-0.1,0.1-0.1,0.2-0.1,0.4c0.9,1.7,1.7,3.4,2.6,5C187.9,32.5,187.9,32.6,188,32.8z M177,10.8
				c-4.3,0-8,3.4-8,8c0,4.6,3.7,8,7.9,8c4.5,0.1,8.2-3.7,8.2-8.1C185,14.4,181.3,10.8,177,10.8z"/>
			<path class="st0" d="M126.2,18.9c0.1,6.2-5.1,11.8-12,11.6c-6.2-0.1-11.4-5.3-11.4-11.8c0.1-6.2,5.3-11.8,12.1-11.5
				C121.1,7.4,126.3,12.5,126.2,18.9z M122.6,18.9c0-4.4-3.6-8-7.8-8.1c-4.6-0.1-8.3,3.6-8.3,8.1c0,4.4,3.6,7.9,7.8,8
				C119,27,122.6,23.2,122.6,18.9z"/>
			<path class="st0" d="M82.7,7.6c1,0,1.9,0,2.9,0c1.4,0,2.8,0,4.1,0C92,7.7,94.1,8.1,96,9.3c2.3,1.4,3.7,3.5,4.4,6
				c0.4,1.4,0.5,2.8,0.4,4.2c-0.1,2.2-0.7,4.4-2,6.2c-1.4,2-3.4,3.2-5.8,3.9c-1.3,0.3-2.6,0.5-3.9,0.5c-2,0-4,0-6.1,0
				c-0.1,0-0.2,0-0.3,0C82.7,22.6,82.7,15.1,82.7,7.6z M86.3,26.6c0.9,0,1.9,0,2.8,0c0.9,0,1.8-0.1,2.6-0.3c2.2-0.6,3.8-1.8,4.7-3.9
				c0.8-1.8,0.9-3.7,0.5-5.6c-0.3-1.5-1-2.7-2.1-3.7c-1.5-1.3-3.3-1.8-5.2-1.9c-1,0-2,0-3,0c-0.1,0-0.2,0-0.3,0
				C86.3,16.3,86.3,21.4,86.3,26.6z"/>
			<path class="st0" d="M202.1,21.1c1.1,1.5,2.2,3,3.3,4.5c1.1,1.5,2.2,3,3.3,4.5c-0.1,0-0.2,0-0.3,0c-1.3,0-2.6,0-3.8,0
				c-0.2,0-0.3-0.1-0.4-0.2c-1.9-2.8-3.8-5.5-5.7-8.3c-0.1-0.2-0.3-0.2-0.5-0.2c-0.8,0-1.6,0-2.4,0c0,2.9,0,5.8,0,8.7
				c-1.2,0-2.4,0-3.6,0c0-7.5,0-15,0-22.6c0.1,0,0.2,0,0.3,0c2.3,0,4.5,0,6.8,0c3.2,0,6.1,1.9,7.1,4.8c1,2.7,0.5,5.1-1.5,7.2
				c-0.6,0.7-1.4,1.2-2.3,1.5C202.2,21.1,202.2,21.1,202.1,21.1z M195.4,18.5c1.2,0,2.3,0,3.4,0c0.7,0,1.3-0.2,1.9-0.5
				c1.5-0.8,2.3-2.6,1.9-4.2c-0.5-1.6-1.9-2.6-3.5-2.7c-1.2,0-2.3,0-3.5,0c-0.1,0-0.1,0-0.2,0C195.4,13.6,195.4,16,195.4,18.5z"/>
			<path class="st0" d="M147.9,10.6c-0.7,1-1.4,1.9-2.1,2.8c-4.1-4-9-3-11.8,0.2c-2.8,3.1-2.7,7.6,0.2,10.7
				c2.9,3.1,7.6,3.8,11.6-0.1c0.7,1,1.4,1.9,2.1,2.9c-0.7,0.6-1.4,1.1-2.2,1.7c-1.3,0.9-2.8,1.5-4.4,1.6c-3.1,0.3-5.9-0.5-8.4-2.4
				c-2.2-1.7-3.6-3.8-4.3-6.5c-0.9-3.6-0.1-6.8,2.1-9.8c1.8-2.4,4.1-3.9,7.1-4.4c3.1-0.6,6,0.1,8.5,2
				C146.8,9.7,147.3,10.2,147.9,10.6z"/>
			<path class="st0" d="M158.7,11.1c0,6.4,0,12.7,0,19c-1.2,0-2.4,0-3.6,0c0-6.3,0-12.6,0-19c-2,0-4,0-6,0c0-1.2,0-2.4,0-3.6
				c5.2,0,10.4,0,15.6,0c0,1.2,0,2.3,0,3.5C162.7,11.1,160.8,11.1,158.7,11.1z"/>
			<path class="st0" d="M15,30.1c-1.2,0-2.4,0-3.6,0c0-6.3,0-12.7,0-19c-2,0-4,0-6,0c0-1.2,0-2.4,0-3.6c5.2,0,10.4,0,15.6,0
				c0,1.2,0,2.3,0,3.5c-2,0-4,0-6,0C15,17.5,15,23.8,15,30.1z"/>
			<path class="st0" d="M54.5,26.6c0,1.2,0,2.4,0,3.6c-4.5,0-9.1,0-13.6,0c0-7.5,0-15,0-22.6c1.2,0,2.4,0,3.6,0c0,6.3,0,12.6,0,19
				C47.8,26.6,51.1,26.6,54.5,26.6z"/>
			<path class="st0" d="M37.6,16.6c0,1.2,0,2.4,0,3.5c-4.6,0-9.2,0-13.9,0c0-0.1,0-0.2,0-0.3c0-0.9,0-1.9,0-2.8
				c0-0.3,0.1-0.4,0.4-0.4c1.7,0,3.5,0,5.2,0c2.6,0,5.3,0,7.9,0C37.4,16.6,37.5,16.6,37.6,16.6z"/>
			<path class="st0" d="M57.2,20.1c0-1.2,0-2.3,0-3.5c4.6,0,9.3,0,13.9,0c0,1.2,0,2.3,0,3.5C66.5,20.1,61.9,20.1,57.2,20.1z"/>
			<path class="st0" d="M73.5,50c0-1.7,0-3.3,0-4.9c0.8,0,1.5,0,2.3,0c0,0.1,0,0.2,0,0.3c0,1.4,0,2.9,0,4.3c0,0.2-0.1,0.3-0.3,0.3
				C74.9,50,74.2,50,73.5,50z"/>
			<path class="st0" d="M171.5,18.6c0-0.9,0.7-1.8,1.8-1.8c1,0,1.8,0.9,1.8,1.9c0,1-0.8,1.8-1.9,1.8
				C172.3,20.5,171.5,19.6,171.5,18.6z"/>
			<path class="st0" d="M181.3,20.5c-1,0-1.8-0.8-1.8-1.9c0-1,0.8-1.8,1.9-1.8c1.1,0,1.8,0.8,1.8,1.8
				C183.2,19.6,182.3,20.5,181.3,20.5z"/>
			<path class="st0" d="M179.1,18.6c0.1,0.8-0.7,1.8-1.8,1.8c-1.1,0-1.8-1-1.8-1.8c0-0.9,0.7-1.8,1.8-1.9
				C178.3,16.7,179.1,17.6,179.1,18.6z"/>
		</g>
	</g>
</g>
</svg>
